<?xml version="1.0" encoding="utf-8"?>
<!-- Generator: Adobe Illustrator 23.0.5, SVG Export Plug-In . SVG Version: 6.00 Build 0)  -->
<svg version="1.1" id="Layer_1" xmlns="http://www.w3.org/2000/svg" xmlns:xlink="http://www.w3.org/1999/xlink" x="0px" y="0px"
	 viewBox="0 0 923.1 249.6" style="enable-background:new 0 0 923.1 249.6;" xml:space="preserve">
<style type="text/css">
	.st0{fill:#D81F26;}
</style>
<path class="st0" d="M126.9,233.5c-13.9,2.4-28,3.2-42.6,5.1L39.7,108v136.2c-13.9,1.5-26.6,3.4-39.7,5.4V0.1h37l50.7,141.5V0.1
	h39.2V233.5z M203.6,91.4c15.1,0,38.2-0.7,52.1-0.7v39c-17.3,0-37.5,0-52.1,0.7v58c22.9-1.5,45.8-3.4,68.9-4.1v37.5l-107.9,8.5V0.1
	h107.9v39h-68.9V91.4z M417.5,39.1h-40.4v179.3c-13.2,0-26.3,0-39,0.5V39.1h-40.4v-39h119.8V39.1z M480.9,88.8h53.4v39h-53.4v88.4
	h-38.3V0.1h108.9v39h-70.7v49.7H480.9z M614.9,182.1c22.2,0.5,44.6,2.2,66.3,3.4V224c-34.8-2.2-69.7-4.4-105.2-5.1V0.1h39v182H614.9
	z M714,226.6c12.4,0.7,25.6,1.5,38.2,2.9V0.1H714V226.6z M923,0.1l-49.4,118.6l49.5,130.8c-14.6-1.9-29.2-4.6-43.9-7.1l-28-72.1
	l-28.5,66.3c-14.1-2.4-27.8-3.2-41.9-5.1L831,117.2L785.7,0h41.8l25.6,65.5L880.4,0H923V0.1z"/>
</svg>
